<svg width="40" height="40" viewBox="0 0 40 40" fill="none" xmlns="http://www.w3.org/2000/svg">
<g clip-path="url(#clip0_2_269)">
<path fill-rule="evenodd" clip-rule="evenodd" d="M36.1231 0.878877L22.793 14.375L26.2663 17.7474L39.6941 4.21872C40.879 1.66989 38.3855 -0.462269 36.1231 0.878877ZM17.5912 15.7031C17.7214 15.6022 17.8549 15.5143 17.9883 15.4394L18.0372 15.4134C18.8021 14.9967 19.6029 15.0097 20.4428 15.5859L22.7767 17.858L22.8125 17.8939L24.961 19.9837C25.8497 20.8886 26.0482 21.8978 25.5567 23.0143L19.2579 39.5345C7.81906 37.2461 -0.110632 29.0918 4.54666e-05 16.6536C6.25981 18.483 12.2885 19.082 17.5912 15.7031Z" fill="#005DA4" fill-opacity="0.25"/>
</g>
<defs>
<clipPath id="clip0_2_269">
<rect width="40" height="40" fill="white"/>
</clipPath>
</defs>
</svg>
