<svg width="42" height="46" viewBox="0 0 42 46" fill="none" xmlns="http://www.w3.org/2000/svg">
<path d="M38.0631 45.5619H3.68811C1.96311 45.5619 0.56311 44.1619 0.56311 42.4369V8.06189C0.56311 6.33533 1.96311 4.93689 3.68811 4.93689H6.81311V6.49939C6.81311 9.08845 8.91155 11.1869 11.5006 11.1869C14.0897 11.1869 16.1881 9.08845 16.1881 6.49939V4.93689H25.5631V6.49939C25.5631 9.08845 27.6631 11.1869 30.2506 11.1869C32.8381 11.1869 34.9381 9.08845 34.9381 6.49939V4.93689H38.0631C39.7881 4.93689 41.1881 6.33533 41.1881 8.06189V42.4369C41.1881 44.1619 39.7881 45.5619 38.0631 45.5619ZM38.0631 15.8744H3.68811V42.4369H38.0631V15.8744ZM11.5006 23.6869H6.81311V18.9994H11.5006V23.6869ZM11.5006 31.4994H6.81311V26.8119H11.5006V31.4994ZM11.5006 39.3119H6.81311V34.6244H11.5006V39.3119ZM19.3131 23.6869H14.6256V18.9994H19.3131V23.6869ZM19.3131 31.4994H14.6256V26.8119H19.3131V31.4994ZM19.3131 39.3119H14.6256V34.6244H19.3131V39.3119ZM27.1256 23.6869H22.4381V18.9994H27.1256V23.6869ZM27.1256 31.4994H22.4381V26.8119H27.1256V31.4994ZM27.1256 39.3119H22.4381V34.6244H27.1256V39.3119ZM34.9381 23.6869H30.2506V18.9994H34.9381V23.6869ZM34.9381 31.4994H30.2506V26.8119H34.9381V31.4994ZM34.9381 39.3119H30.2506V34.6244H34.9381V39.3119ZM30.2022 9.62439C28.5022 9.62439 27.1256 8.24626 27.1256 6.54783V3.32595C27.1256 1.62595 28.5022 0.24939 30.2022 0.24939C31.9022 0.24939 33.2787 1.62595 33.2787 3.32595V6.54783C33.2787 8.24626 31.9022 9.62439 30.2022 9.62439ZM11.4522 9.62439C9.75217 9.62439 8.37561 8.24626 8.37561 6.54783V3.32595C8.37561 1.62595 9.75217 0.24939 11.4522 0.24939C13.1522 0.24939 14.5287 1.62595 14.5287 3.32595V6.54783C14.5287 8.24626 13.1506 9.62439 11.4522 9.62439Z" fill="black"/>
<path d="M22.4926 21.347V19.046H24.7935H27.0945V21.347V23.648H24.7935H22.4926V21.347Z" fill="#FF9955"/>
<path d="M22.4926 21.347V19.046H24.7935H27.0945V21.347V23.648H24.7935H22.4926V21.347Z" fill="#FF9955"/>
<path d="M22.4926 21.347V19.046H24.7935H27.0945V21.347V23.648H24.7935H22.4926V21.347Z" fill="#FF9955"/>
<path d="M6.87177 29.1292V26.8311H9.16986H11.468V29.1292V31.4272H9.16986H6.87177V29.1292Z" fill="#FF9955"/>
<path d="M6.87177 29.1292V26.8311H9.16986H11.468V29.1292V31.4272H9.16986H6.87177V29.1292Z" fill="#FF9955"/>
<path d="M14.6499 29.1292V26.8311H16.948H19.2461V29.1292V31.4272H16.948H14.6499V29.1292Z" fill="#FF9955"/>
<path d="M22.5165 29.1292V26.8311H24.8146H27.1127V29.1292V31.4272H24.8146H22.5165V29.1292Z" fill="#FF9955"/>
<path d="M30.2947 29.1292V26.8311H32.5928H34.8909V29.1292V31.4272H32.5928H30.2947V29.1292Z" fill="#FF9955"/>
<path d="M14.6499 21.351V19.0529H16.948H19.2461V21.351V23.649H16.948H14.6499V21.351Z" fill="#FF9955"/>
<path d="M6.87177 21.351V19.0529H9.16986H11.468V21.351V23.649H9.16986H6.87177V21.351Z" fill="#FF9955"/>
<path d="M22.5165 21.351V19.0529H24.8146H27.1127V21.351V23.649H24.8146H22.5165V21.351Z" fill="#FF9955"/>
<path d="M30.2947 21.351V19.0529H32.5928H34.8909V21.351V23.649H32.5928H30.2947V21.351Z" fill="#FF9955"/>
<path d="M6.87177 29.1292V26.8311H9.16986H11.468V29.1292V31.4272H9.16986H6.87177V29.1292Z" fill="#FF9955"/>
<path d="M22.5165 29.1292V26.8311H24.8146H27.1127V29.1292V31.4272H24.8146H22.5165V29.1292Z" fill="#FF9955"/>
<path d="M30.2947 29.1292V26.8311H32.5928H34.8909V29.1292V31.4272H32.5928H30.2947V29.1292Z" fill="#FF9955"/>
<path d="M6.87177 36.9957V34.6976H9.16986H11.468V36.9957V39.2938H9.16986H6.87177V36.9957Z" fill="#FF9955"/>
<path d="M14.6499 36.9957V34.6976H16.948H19.2461V36.9957V39.2938H16.948H14.6499V36.9957Z" fill="#FF9955"/>
<path d="M22.5165 36.9957V34.6976H24.8146H27.1127V36.9957V39.2938H24.8146H22.5165V36.9957Z" fill="#FF9955"/>
<path d="M30.2947 36.9957V34.6976H32.5928H34.8909V36.9957V39.2938H32.5928H30.2947V36.9957Z" fill="#FF9955"/>
</svg>
