<svg width="30" height="30" viewBox="0 0 30 30" fill="none" xmlns="http://www.w3.org/2000/svg">
<path d="M7.5 0.000488283C7.23727 0.000477678 6.97711 0.0521864 6.73437 0.152662C6.49164 0.253137 6.27108 0.400412 6.0853 0.586076C5.89952 0.77174 5.75215 0.992157 5.65161 1.23474C5.55106 1.47733 5.49931 1.73733 5.49932 1.9999V3.53125H2.00059C1.47001 3.53131 0.96118 3.74198 0.586009 4.11693C0.210838 4.49188 4.82271e-05 5.00041 0 5.53066V28.0005C4.81514e-05 28.5307 0.210838 29.0393 0.586009 29.4142C0.96118 29.7892 1.47001 29.9998 2.00059 29.9999H27.9993C28.5299 29.9999 29.0388 29.7892 29.414 29.4143C29.7891 29.0393 30 28.5308 30 28.0005V5.53066C30 5.00039 29.7891 4.49185 29.414 4.1169C29.0388 3.74194 28.5299 3.53128 27.9993 3.53125H24.5006V1.9999C24.5006 1.73734 24.4488 1.47734 24.3483 1.23477C24.2478 0.992186 24.1004 0.771773 23.9146 0.58611C23.7289 0.400447 23.5083 0.253171 23.2656 0.15269C23.0229 0.0522086 22.7627 0.000490481 22.5 0.000488283C22.2373 0.000477678 21.9771 0.0521864 21.7344 0.152662C21.4916 0.253137 21.2711 0.400412 21.0853 0.586076C20.8995 0.77174 20.7521 0.992157 20.6516 1.23474C20.5511 1.47733 20.4993 1.73733 20.4993 1.9999V3.53125H17.0006V1.9999C17.0006 1.73734 16.9488 1.47734 16.8483 1.23477C16.7478 0.992186 16.6004 0.771773 16.4146 0.58611C16.2289 0.400447 16.0083 0.253171 15.7656 0.15269C15.5229 0.0522086 15.2627 0.000490481 15 0.000488283C14.7373 0.000477615 14.4771 0.0521863 14.2344 0.152662C13.9916 0.253137 13.7711 0.400411 13.5853 0.586075C13.3995 0.77174 13.2521 0.992157 13.1516 1.23474C13.0511 1.47733 12.9993 1.73733 12.9993 1.9999V3.53125H9.50059V1.9999C9.50059 1.73734 9.44884 1.47734 9.34831 1.23477C9.24777 0.992186 9.10041 0.771773 8.91464 0.58611C8.72886 0.400447 8.50832 0.253171 8.2656 0.15269C8.02287 0.0522086 7.76272 0.000490481 7.5 0.000488283ZM4.00117 11.3993H25.9987V26.0011H4.00117V11.3993Z" fill="#FF5C00" fill-opacity="0.25"/>
<path d="M19.2501 13.2501C19.1175 13.2501 18.9903 13.3028 18.8965 13.3966C18.8027 13.4903 18.75 13.6175 18.75 13.75V17.3857C18.75 17.5183 18.8027 17.6454 18.8965 17.7391C18.9903 17.8328 19.1175 17.8855 19.2501 17.8855H23.7498C23.8825 17.8855 24.0097 17.8328 24.1035 17.7391C24.1973 17.6454 24.2499 17.5183 24.25 17.3857V13.75C24.25 13.6175 24.1973 13.4903 24.1035 13.3966C24.0097 13.3028 23.8825 13.2501 23.7498 13.2501H19.2501ZM19.7503 14.2499H23.2497V16.8858H19.7503V14.2499Z" fill="#FF5C00" fill-opacity="0.25"/>
<path d="M12.7502 13.2501C12.4739 13.2501 12.2499 13.4739 12.2499 13.75V17.3857C12.25 17.6618 12.4739 17.8855 12.7502 17.8855H17.2498C17.526 17.8855 17.75 17.6618 17.75 17.3857V13.75C17.75 13.4739 17.5261 13.2501 17.2498 13.2501H12.7502Z" fill="#FF5C00" fill-opacity="0.25"/>
<path d="M6.25022 13.1823C5.97395 13.1822 5.74999 13.4061 5.75 13.6822V17.3178C5.75004 17.5939 5.97399 17.8177 6.25022 17.8177H10.7498C11.0261 17.8177 11.25 17.5939 11.2501 17.3178V13.6822C11.2501 13.4061 11.0261 13.1822 10.7498 13.1823H6.25022Z" fill="#FF5C00" fill-opacity="0.25"/>
<path d="M12.7502 19.3646C12.4739 19.3646 12.2499 19.5884 12.2499 19.8645V23.5002C12.25 23.7763 12.4739 24 12.7502 24H17.2498C17.526 24 17.75 23.7763 17.75 23.5002V19.8645C17.75 19.5884 17.5261 19.3646 17.2498 19.3646H12.7502Z" fill="#FF5C00" fill-opacity="0.25"/>
<path d="M19.2502 19.4323C18.9739 19.4322 18.7499 19.6561 18.7499 19.9322V23.5678C18.75 23.8439 18.9739 24.0677 19.2502 24.0677H23.7498C24.026 24.0677 24.25 23.8439 24.25 23.5678V19.9322C24.25 19.6561 24.0261 19.4322 23.7498 19.4323H19.2502Z" fill="#FF5C00" fill-opacity="0.25"/>
<path d="M6.25022 19.2968C5.97395 19.2967 5.74999 19.5206 5.75 19.7967V23.4323C5.75004 23.7084 5.97399 23.9322 6.25022 23.9322H10.7498C11.0261 23.9322 11.25 23.7084 11.2501 23.4323V19.7967C11.2501 19.5206 11.0261 19.2967 10.7498 19.2968H6.25022Z" fill="#FF5C00" fill-opacity="0.25"/>
</svg>
