<svg width="42" height="46" viewBox="0 0 42 46" fill="none" xmlns="http://www.w3.org/2000/svg">
<path d="M38.0876 45.5619H3.69507C1.96919 45.5619 0.568481 44.1619 0.568481 42.4369V8.06189C0.568481 6.33533 1.96919 4.93689 3.69507 4.93689H6.82167V6.49939C6.82167 9.08845 8.92117 11.1869 11.5116 11.1869C14.1019 11.1869 16.2014 9.08845 16.2014 6.49939V4.93689H25.5812V6.49939C25.5812 9.08845 27.6823 11.1869 30.2711 11.1869C32.8599 11.1869 34.961 9.08845 34.961 6.49939V4.93689H38.0876C39.8135 4.93689 41.2142 6.33533 41.2142 8.06189V42.4369C41.2142 44.1619 39.8135 45.5619 38.0876 45.5619ZM38.0876 15.8744H3.69507V42.4369H38.0876V15.8744ZM11.5116 23.6869H6.82167V18.9994H11.5116V23.6869ZM11.5116 31.4994H6.82167V26.8119H11.5116V31.4994ZM11.5116 39.3119H6.82167V34.6244H11.5116V39.3119ZM19.328 23.6869H14.6381V18.9994H19.328V23.6869ZM19.328 31.4994H14.6381V26.8119H19.328V31.4994ZM19.328 39.3119H14.6381V34.6244H19.328V39.3119ZM27.1445 23.6869H22.4546V18.9994H27.1445V23.6869ZM27.1445 31.4994H22.4546V26.8119H27.1445V31.4994ZM27.1445 39.3119H22.4546V34.6244H27.1445V39.3119ZM34.961 23.6869H30.2711V18.9994H34.961V23.6869ZM34.961 31.4994H30.2711V26.8119H34.961V31.4994ZM34.961 39.3119H30.2711V34.6244H34.961V39.3119ZM30.2226 9.62439C28.5218 9.62439 27.1445 8.24626 27.1445 6.54783V3.32595C27.1445 1.62595 28.5218 0.24939 30.2226 0.24939C31.9235 0.24939 33.3008 1.62595 33.3008 3.32595V6.54783C33.3008 8.24626 31.9235 9.62439 30.2226 9.62439ZM11.4631 9.62439C9.76223 9.62439 8.38496 8.24626 8.38496 6.54783V3.32595C8.38496 1.62595 9.76223 0.24939 11.4631 0.24939C13.164 0.24939 14.5412 1.62595 14.5412 3.32595V6.54783C14.5412 8.24626 13.1624 9.62439 11.4631 9.62439Z" fill="black"/>
<path d="M22.5091 21.347V19.046H24.8113H27.1134V21.347V23.648H24.8113H22.5091V21.347Z" fill="black"/>
<path d="M22.5091 21.347V19.046H24.8113H27.1134V21.347V23.648H24.8113H22.5091V21.347Z" fill="black"/>
<path d="M22.5091 21.347V19.046H24.8113H27.1134V21.347V23.648H24.8113H22.5091V21.347Z" fill="black"/>
<path d="M6.88037 29.1292V26.8311H9.17964H11.4789V29.1292V31.4272H9.17964H6.88037V29.1292Z" fill="#FF9955"/>
<path d="M6.88037 29.1292V26.8311H9.17964H11.4789V29.1292V31.4272H9.17964H6.88037V29.1292Z" fill="#FF9955"/>
<path d="M14.6625 29.1292V26.8311H16.9617H19.261V29.1292V31.4272H16.9617H14.6625V29.1292Z" fill="#808080"/>
</svg>
