<svg width="26" height="26" viewBox="0 0 26 26" fill="none" xmlns="http://www.w3.org/2000/svg">
<g clip-path="url(#clip0_2_260)">
<path d="M25.5866 3.17979C24.609 2.19699 23.6964 1.09459 22.5628 0.285988C21.5228 0.0701878 21.0236 1.19339 20.3086 1.71859C21.515 3.11999 22.9216 4.35759 24.219 5.68359C24.8066 4.98419 26.2002 4.26659 25.5866 3.17979ZM24.9418 8.47339C24.1176 9.30019 23.2648 10.1062 22.4692 10.9642C22.4484 14.2792 22.477 17.5942 22.4588 20.9118C22.4432 22.1338 21.372 23.218 20.15 23.2596C15.1216 23.2804 10.088 23.2804 5.0596 23.2622C3.70239 23.2258 2.61559 21.9258 2.72219 20.592C2.71959 15.7924 2.71959 10.9954 2.72219 6.20099C2.61819 4.87239 3.71019 3.59319 5.0518 3.54639C8.38239 3.50219 11.7156 3.54899 15.0436 3.52299C15.9068 2.74299 16.705 1.88759 17.5318 1.06599C13.0962 1.06599 8.6658 1.04259 4.23019 1.07899C2.16059 1.11539 0.304195 2.92499 0.267795 5.00499C0.262595 10.6002 0.246995 16.1928 0.278195 21.788C0.285995 23.803 1.99679 25.5502 3.98059 25.74H21.4058C23.2856 25.4098 24.8976 23.7692 24.921 21.8166C24.9782 17.3706 24.934 12.9194 24.9418 8.47339ZM23.6132 6.29719C22.308 4.98419 20.9924 3.67899 19.6716 2.37899C16.7804 5.24939 13.884 8.11199 11.0084 10.998C12.311 12.3084 13.6188 13.6136 14.9422 14.9058C17.836 12.0406 20.7272 9.16759 23.6132 6.29719ZM8.87119 17.0196C10.6418 16.5386 11.5856 16.2344 13.3562 15.7586C13.8294 15.6078 14.144 15.5168 14.3884 15.4206C13.1352 14.2272 11.6948 12.7556 10.4442 11.5518C9.9164 13.3744 9.39639 15.197 8.87119 17.0196Z" fill="#F3F3F3"/>
</g>
<defs>
<clipPath id="clip0_2_260">
<rect width="26" height="26" fill="white"/>
</clipPath>
</defs>
</svg>
