<svg width="24" height="24" viewBox="0 0 24 24" fill="none" xmlns="http://www.w3.org/2000/svg">
<path d="M12 0.1875C5.47656 0.1875 0.1875 5.47656 0.1875 12C0.1875 18.5234 5.47656 23.8125 12 23.8125C18.5234 23.8125 23.8125 18.5234 23.8125 12C23.8125 5.47656 18.5234 0.1875 12 0.1875ZM14.4609 18.4961C13.8516 18.7344 13.3672 18.918 13.0039 19.043C12.6406 19.168 12.2227 19.2305 11.7422 19.2305C11.0078 19.2305 10.4336 19.0508 10.0234 18.6914C9.61719 18.3359 9.41406 17.8789 9.41406 17.3242C9.41406 17.1094 9.42969 16.8906 9.46094 16.668C9.48828 16.4414 9.53906 16.1914 9.60547 15.9062L10.3672 13.2188C10.4336 12.9609 10.4922 12.7188 10.5391 12.4883C10.5859 12.2578 10.6055 12.0469 10.6055 11.8555C10.6055 11.5156 10.5352 11.2734 10.3945 11.1406C10.25 11.0039 9.98047 10.9375 9.58203 10.9375C9.38672 10.9375 9.18359 10.9688 8.97656 11.0273C8.76953 11.0898 8.59375 11.1484 8.44531 11.2031L8.64844 10.375C9.14453 10.1719 9.62109 10 10.0781 9.85547C10.5312 9.71094 10.9648 9.63672 11.3672 9.63672C12.0977 9.63672 12.6641 9.81641 13.0586 10.168C13.4531 10.5195 13.6523 10.9805 13.6523 11.543C13.6523 11.6602 13.6406 11.8672 13.6133 12.1602C13.5859 12.4531 13.5352 12.7227 13.4609 12.9727L12.7031 15.6523C12.6406 15.8672 12.5859 16.1133 12.5352 16.3867C12.4883 16.6602 12.4648 16.8711 12.4648 17.0117C12.4648 17.3672 12.543 17.6133 12.7031 17.7422C12.8594 17.8711 13.1367 17.9336 13.5312 17.9336C13.7148 17.9336 13.9219 17.9023 14.1562 17.8398C14.3867 17.7734 14.5547 17.7188 14.6602 17.668L14.4609 18.4961ZM14.3242 7.61719C13.9727 7.94531 13.5469 8.10938 13.0508 8.10938C12.5547 8.10938 12.125 7.94531 11.7695 7.61719C11.4141 7.28906 11.2383 6.89062 11.2383 6.42578C11.2383 5.96094 11.418 5.55859 11.7695 5.22656C12.125 4.89453 12.5547 4.73047 13.0508 4.73047C13.5469 4.73047 13.9727 4.89453 14.3242 5.22656C14.6797 5.55859 14.8555 5.96094 14.8555 6.42578C14.8555 6.89062 14.6797 7.28906 14.3242 7.61719Z" fill="#F3F3F3"/>
</svg>
