<svg width="24" height="24" viewBox="0 0 24 24" fill="none" xmlns="http://www.w3.org/2000/svg">
<path d="M23.25 22V7.5175C23.2499 7.18601 23.1182 6.86812 22.8838 6.63375L17.3662 1.11625C17.1319 0.881813 16.814 0.750071 16.4825 0.75H2C1.66848 0.75 1.35054 0.881696 1.11612 1.11612C0.881696 1.35054 0.75 1.66848 0.75 2V22C0.75 22.3315 0.881696 22.6495 1.11612 22.8839C1.35054 23.1183 1.66848 23.25 2 23.25H22C22.3315 23.25 22.6495 23.1183 22.8839 22.8839C23.1183 22.6495 23.25 22.3315 23.25 22ZM8.25 7H13.25C13.5815 7 13.8995 7.1317 14.1339 7.36612C14.3683 7.60054 14.5 7.91848 14.5 8.25C14.5 8.58152 14.3683 8.89946 14.1339 9.13388C13.8995 9.3683 13.5815 9.5 13.25 9.5H8.25C7.91848 9.5 7.60054 9.3683 7.36612 9.13388C7.1317 8.89946 7 8.58152 7 8.25C7 7.91848 7.1317 7.60054 7.36612 7.36612C7.60054 7.1317 7.91848 7 8.25 7ZM17 20.75H7V15.75C7 15.4185 7.1317 15.1005 7.36612 14.8661C7.60054 14.6317 7.91848 14.5 8.25 14.5H15.75C16.0815 14.5 16.3995 14.6317 16.6339 14.8661C16.8683 15.1005 17 15.4185 17 15.75V20.75Z" fill="#F3F3F3"/>
</svg>
